# xmcd CD database file
#
# Track frame offsets:
#	150
#	23363
#	44125
#
# Disc length: 894 seconds
#
# Revision: 0
# Processed by: cddbd v1.5.1PL2 Copyright (c) Steve Scherf et al.
# Submitted via: CDex 1.51
#
DISCID=1c037c03
DTITLE=中村雅俊 - 誰よりも・・・
DYEAR=1992
DGENRE=J-POP
TTITLE0=誰よりも・・・
TTITLE1=心にさわってみれば
TTITLE2=誰よりも・・・（オリジナル・カラオケ）
EXTD=YEAR: 1992
EXTT0=
EXTT1=
EXTT2=
PLAYORDER=
